<?xml version="1.0" standalone="no"?>
<!DOCTYPE svg PUBLIC "-//W3C//DTD SVG 20010904//EN"
 "http://www.w3.org/TR/2001/REC-SVG-20010904/DTD/svg10.dtd">
<svg version="1.0" xmlns="http://www.w3.org/2000/svg"
 width="216.000000pt" height="200.000000pt" viewBox="0 0 216.000000 200.000000"
 preserveAspectRatio="xMidYMid meet">

<g transform="translate(0.000000,200.000000) scale(0.100000,-0.100000)"
fill="#000000" stroke="none">
<path d="M170 1265 c-58 -19 -115 -66 -141 -118 -17 -32 -20 -54 -17 -106 6
-110 56 -159 176 -172 35 -3 66 -9 69 -13 15 -14 -10 -18 -59 -8 -52 10 -52
10 -30 -8 12 -10 22 -20 22 -23 0 -8 -86 11 -125 27 -44 19 -44 19 -47 -94
l-3 -84 60 -24 c123 -50 247 -36 327 36 26 23 39 30 35 19 -4 -10 -7 -27 -7
-38 0 -14 -15 -27 -52 -44 -62 -29 -157 -33 -231 -11 -66 20 -58 3 10 -24 79
-30 166 -37 234 -16 52 15 117 55 92 56 -7 0 -13 5 -13 10 0 7 34 10 97 8 l98
-3 9 43 9 42 48 0 c27 0 49 -4 49 -10 0 -5 -15 -10 -34 -10 -33 0 -35 -2 -42
-45 -3 -25 -9 -47 -13 -49 -3 -2 -40 0 -81 4 -70 8 -82 5 -81 -17 0 -5 48 -13
106 -18 l105 -10 10 35 c5 19 10 41 10 48 0 6 7 12 15 12 9 0 18 -6 20 -12 4
-10 55 -13 208 -13 l202 0 9 43 9 42 48 0 c27 0 49 -4 49 -10 0 -5 -15 -10
-34 -10 -32 0 -34 -2 -43 -47 l-8 -48 -65 5 c-84 6 -278 5 -285 -2 -3 -3 -2
-13 1 -23 6 -16 15 -17 83 -9 92 10 132 9 234 -3 l77 -9 10 35 c5 20 10 42 10
49 0 18 27 15 38 -5 9 -15 19 -15 103 -5 77 9 96 9 107 -2 11 -11 2 -14 -57
-20 -72 -7 -77 -10 -62 -35 9 -14 43 -13 175 5 36 5 47 4 42 -4 -11 -18 157
-15 227 3 76 20 145 56 184 97 100 104 108 301 17 396 l-35 37 23 -45 c33 -65
32 -193 -1 -268 -30 -66 -104 -134 -175 -161 -67 -25 -199 -43 -253 -35 -69
10 -50 21 50 27 197 11 319 92 362 241 13 43 16 78 12 123 -17 175 -155 267
-368 243 -137 -16 -125 -1 -135 -158 l-9 -137 -34 118 c-28 98 -37 117 -54
117 -13 0 -17 -5 -14 -14 19 -48 107 -371 107 -389 -1 -39 -14 0 -85 244 l-68
237 -121 -5 c-79 -3 -124 -10 -131 -18 -5 -7 -32 -89 -60 -184 -27 -94 -52
-171 -55 -171 -3 0 -25 68 -49 150 -37 128 -47 150 -63 150 -12 0 -18 -5 -15
-12 26 -69 106 -373 100 -379 -4 -4 -39 99 -77 231 l-69 238 -121 -5 c-66 -3
-125 -9 -129 -13 -5 -4 -30 -80 -56 -169 -26 -89 -51 -158 -55 -154 -4 5 -7 1
-6 -7 7 -44 -3 -50 -16 -9 -13 45 -40 81 -80 107 -17 11 -15 12 16 8 19 -3 49
-8 66 -11 l31 -7 7 81 c8 88 6 96 -23 104 -17 4 -20 -3 -26 -72 l-7 -77 -61
13 c-62 13 -122 10 -143 -8 -13 -10 -44 -2 -44 12 0 28 87 38 166 18 25 -6 46
-10 48 -8 3 2 7 45 11 95 l7 91 -33 12 c-55 20 -188 23 -239 6z m228 -16 l33
-11 -6 -62 c-10 -104 -12 -107 -41 -96 -34 13 -140 13 -165 0 -24 -13 -25 -46
-2 -55 10 -3 47 -9 83 -12 118 -11 160 -52 160 -160 0 -76 -9 -101 -55 -152
-69 -76 -190 -96 -318 -52 l-69 23 7 82 c4 44 8 82 10 84 1 1 20 -4 41 -12 60
-21 136 -29 167 -17 63 24 37 71 -38 71 -115 0 -185 66 -185 175 0 131 119
222 275 211 39 -3 85 -10 103 -17z m446 -7 c3 -5 37 -118 76 -252 67 -229 71
-247 60 -286 -12 -40 -14 -42 -59 -49 -25 -3 -60 -8 -78 -12 -31 -5 -32 -3
-46 43 l-14 49 -56 3 -55 3 -7 -38 c-10 -65 -10 -65 -121 -52 -54 6 -100 11
-101 12 -2 3 155 530 166 554 9 21 18 23 113 26 57 1 106 4 110 5 4 1 9 -2 12
-6z m540 -1 c13 -20 156 -528 156 -552 0 -25 -3 -27 -65 -33 -36 -4 -79 -9
-95 -12 -27 -6 -29 -4 -43 42 l-14 49 -56 3 -55 3 -7 -38 c-10 -65 -10 -65
-121 -52 -54 6 -100 11 -101 12 -2 3 155 530 166 554 9 21 18 23 113 26 57 1
106 4 110 5 4 1 9 -2 12 -7z m495 -26 c62 -22 107 -61 136 -118 21 -42 25 -65
25 -131 0 -94 -25 -159 -81 -215 -67 -67 -201 -111 -341 -111 l-58 0 -2 138
c-1 75 -1 146 0 157 1 11 4 77 8 147 l7 127 41 10 c67 15 219 13 265 -4z"/>
<path d="M711 968 c-7 -35 -15 -73 -18 -85 -5 -21 -2 -23 37 -23 30 0 41 4 37
13 -2 6 -10 45 -17 85 -7 39 -16 72 -20 72 -3 0 -12 -28 -19 -62z m32 -40 c5
-41 -1 -58 -20 -58 -12 0 -14 8 -9 38 3 20 6 43 6 50 0 26 18 2 23 -30z"/>
<path d="M1251 968 c-7 -35 -15 -73 -18 -85 -5 -21 -2 -23 37 -23 30 0 41 4
37 13 -2 6 -10 45 -17 85 -7 39 -16 72 -20 72 -3 0 -12 -28 -19 -62z m32 -40
c5 -41 -1 -58 -20 -58 -12 0 -14 8 -9 38 3 20 6 43 6 50 0 26 18 2 23 -30z"/>
<path d="M1766 1062 c-2 -4 -7 -65 -11 -135 -8 -125 -7 -127 13 -127 30 0 89
55 102 96 14 41 5 106 -18 134 -18 21 -79 44 -86 32z m55 -22 c5 0 9 -5 9 -11
0 -5 -4 -8 -9 -5 -11 7 -21 -53 -21 -131 0 -52 -3 -64 -20 -73 -20 -11 -20 -9
-15 77 9 133 14 156 31 149 9 -3 20 -6 25 -6z m42 -122 l-11 -33 -1 45 c-1 33
2 41 11 32 8 -8 8 -20 1 -44z"/>
</g>
</svg>
